<?xml version="1.0" standalone="no"?>
<!DOCTYPE svg PUBLIC "-//W3C//DTD SVG 1.1//EN" "http://www.w3.org/Graphics/SVG/1.1/DTD/svg11.dtd">
<svg xmlns="http://www.w3.org/2000/svg" id="Layer_2" data-name="Layer 2" viewBox="0 0 247.17 252.3" width="247.1699981689453" height="252.3000030517578">
  <defs>
    <style>
      .cls-1 {
        fill: #ddac8a;
        stroke-width: 0px;
      }
    </style>
  </defs>
  <g id="Layer_1-2" data-name="Layer 1">
    <g>
      <path class="cls-1" d="m79.36,138.27c1.18-.6,2.38-1.16,3.54-1.81.69-.38,1.26-.98,1.97-1.32,3.97-1.92,4.38-2.92,2.89-7.53-1.47-4.56.24-7.39,4.94-7.98.56,2.95,1.12,5.91,1.72,9.13-.24.18-.74.46-1.13.86-.44.45-.78.99-1.17,1.49.54.31,1.09.89,1.63.89,1.58,0,3.16-.25,4.73-.39,1.09-.1,2.18-.32,3.26-.26,3.24.19,6.52.94,9.7.61,3.02-.32,6.18-1.31,8.78-2.85,1.26-.74,1.75-3.38,1.91-5.22.36-4.09,1.6-4.93,5.47-3.54.91.33,2.25-.52,3.38-.82-.38-1.06-.47-2.43-1.2-3.11-1.92-1.77-2.05-2.77.26-3.9,1.3-.64,2.9-.66,4.28-1.18,1.99-.75,3.9-1.7,5.85-2.57-.2-.54-.39-1.08-.59-1.63-2.15.6-4.29,1.29-6.47,1.77-1.82.41-3.7.85-5.54.78-2.48-.09-3.96-2.26-3.86-4.74.05-1.24-.01-2.62-.51-3.72-1.14-2.53-.32-4.02,1.83-5.53,2.5-1.75,4.98-3.68,6.94-5.99,1.65-1.94.58-3.52-2.03-3.71-3.02-.22-5.78,2.23-6.26,5.09-.2,1.19-1.09,2.48-2.04,3.28-1.9,1.6-4.41,2.59-6.05,4.39-3.76,4.11-4.66,7.45.5,10.43,2.33,1.35,1.57,3.19-.11,3.89-4.3,1.79-5.5,5.09-5.69,9.28-.09,1.86-.96,3.23-3.25,3.06-.64-.05-1.37.46-1.98.84-.87.55-2.05,1.9-2.42,1.7-.99-.55-1.87-1.64-2.35-2.71-1.36-3.04-2.29-6.29-3.77-9.26-1.32-2.65-2.62-2.68-4.97-.82-1.08.86-2.18,2.02-3.44,2.29-3.86.84-6.65-1.06-6.57-4.73.05-2.49-1.15-5-1.73-7.52-.41-1.74.15-2.98,1.73-4.05,5-3.39,10.12-6.69,14.74-10.55,2.16-1.8,3.64-4.68,4.8-7.35,1.77-4.05,5.12-6.38,8.29-9.03,1-.84,1.96-2.13,2.21-3.36.32-1.6.9-2.16,2.44-2.81,3.29-1.39,6.86-1.42,10.23-2.97,2.75-1.26,5.81-2.25,8.58-3.74.26-.14.57-.29.85-.26,4.46.45,9.14.26,13.31,1.62,2.99.97,5.24,4.1,7.94,6.11,1.34,1,2.87,1.82,4.43,2.41,1.76.67,3.73.8,5.47,1.51,3.69,1.51,5.23,7.35,2.82,10.49-1.64,2.14-3.96,1.6-6.09,1.03-1.82-.49-3.52-1.54-5.36-1.86-1.01-.17-2.19.66-3.29,1.04.57.88.98,1.94,1.74,2.6,1.04.91,2.42,1.42,3.5,2.29,1.35,1.1,2.59,2.16.61,4.11-.68.66-.04,2.66,0,4.04,1.26-.09,2.88.29,3.71-.36,2.88-2.24,5.41-4.91,8.2-7.26,2.21-1.85,4.49-3.69,6.97-5.15,5.35-3.15,4.68-8.16,2.15-13.09-.36-.69-.81-1.34-1.21-2.01,2.96-1.86,4.54-1.2,4.98,1.99.2,1.49.22,3.01.5,4.48.44,2.34,2.05,3.04,3.85,1.51,1.81-1.53,3.05-1.73,4.19.62.18.37,1.1.75,1.48.6,3.27-1.21,3.06,1.15,3.07,3.02.06,9.52.04,19.05.05,28.57,0,6.32.13,12.63-.04,18.94-.1,3.81.49,7.32,2.36,10.67.47.83.38,1.98.58,3.17-.94-.09-1.16-.05-1.33-.13-1.18-.56-2.36-1.15-3.53-1.72-.34,1.21-.87,2.41-.97,3.65-.3,3.67.13,6.85,4.53,8.2,2.26.69,2.29,5.63.34,7.16-1.82,1.43-4.56,2.63-5.13,4.47-.59,1.92.77,4.55,1.61,6.74.61,1.61,1.76,3.02,2.77,4.7-2.92,1.48-4.91.06-7.17-1.02-4.26-2.04-8.7-3.71-13.09-5.45-.6-.24-1.4.11-2.08,0-1.76-.29-4.15-.08-5.14-1.14-4.34-4.67-9.09-3.96-14.15-1.86-.35.15-.72.24-1.39.47-.54-1.23-1.49-2.4-1.45-3.53.06-2.02-.92-2.54-2.5-3.4-2.67-1.45-3.56-.02-4.61,1.9-.65,1.18-1.6,2.2-2.27,3.38-.8,1.41-1.39,2.94-2.15,4.37-1.15,2.15-2,4.65-3.69,6.25-1.49,1.41-3.11,3.48-6.25,2.37-1.08-.38-3.41,1.99-4.74,3.49-.42.47.34,2.36.99,3.31,1.05,1.54,1.84,2.59-.52,3.71-.93.44-1.43,1.76-2.3,2.89-2.34-.86-3.9-2.62-3.18-5.08.69-2.35-.37-3.43-1.88-4.47-2.22-1.52-3.53-3.25-3.15-6.19.36-2.76-2.3-3.07-4.04-4.11-2.18-1.3-4.29-2.71-6.38-4.15-2.2-1.52-4.35-3.13-6.58-4.76-1.78,3.27-1.44,4.94.89,6.58,2.04,1.43,3.3,4.17,6.45,3.76.24-.03.54.78.89,1.12,1.29,1.26,2.62,2.48,3.92,3.73.9.87,1.77,1.77,2.17,3.12-1.16-.21-2.31-.42-4.07-.74,1.39,3.34.9,5.53-2.17,6.74-.43.17-.65,1.34-.66,2.05-.04,2.11-1.24,2.4-2.8,1.75-1.65-.69-3.23-1.57-4.74-2.52-.46-.29-.89-1.24-.74-1.68.15-.44,1.04-.82,1.63-.86,1.37-.11,2.79.19,4.12-.05.9-.16,2.34-.93,2.38-1.5.07-1.12-.35-2.64-1.14-3.37-1.44-1.32-3.24-2.31-5-3.21-2.87-1.47-6.45-1.88-7.61-6.27-.94,1.71-1.49,2.72-2.04,3.73.24,0,.48-.02.73-.03.24,2.01.73,4.03.61,6.01-.05.88-1.33,1.68-2.05,2.52-.68-.87-1.45-1.69-1.98-2.64-.26-.46-.09-1.18-.04-1.78.2-2.22,2.64-4.23.63-6.75-.08-.1,1.7-1.68,3.01-2.94-.09-1.31-1.2-1.87-2.97-1.45-.67.16-1.39.35-1.96.73-3.72,2.46-7.55,3.78-12.14,2.45-2.14-.62-3.75.58-3.44,3.17.23,2.01-.84,3-2.59,3.41-2.64.62-3.31,2.49-3.48,4.88-.34,4.92-5.81,8.17-10.44,8.89-4.08.64-6.88-1.16-10.23-2-1.69-.42-2.99-.92-2.97-3.06.02-2.28-.27-4.56-.35-6.85-.09-2.45.16-4.95-.21-7.35-.29-1.87-.16-2.99,1.93-3.08,4.33-.18,8.67-.47,13-.39,1.95.03,4.61,1.35,5.36-.88.78-2.31.78-5.48-.24-7.63-.99-2.08-3.74-3.31-5.65-4.98-.75-.66-1.34-1.52-2-2.28.8-.5,1.57-1.33,2.42-1.43,2.19-.27,4.69.47,5.76-2.44.08-.22.72-.36,1.08-.32,3.54.46,5.69-1.92,8.04-3.89.37-.31.75-.91,1.12-.91,3.87.04,5.45-2.37,6.07-5.85.24.19.49.39.73.58Zm80.22,21.99c1.3,2.12,3.72,2.63,5.22,1.9,1.56-.77,2.38-3.06,3.52-4.69-.76-.26-1.7-.93-2.25-.7-2.05.9-3.97,2.1-6.49,3.48Z"/>
      <path class="cls-1" d="m0,125.72c.34-4.26.42-8.56,1.07-12.77,1.15-7.45,3.4-14.8,3.85-22.27.73-12.21,6.93-22,12.87-31.84,14.73-24.38,35.77-41.47,62.43-51.48C97.25.97,115.03-1,133.05.45c7.18.58,14.19,3.07,21.34,4.36,8.14,1.47,15.59,4.7,22.96,8.22,11.38,5.44,21.55,12.66,30.63,21.38,11.05,10.61,20.43,22.51,27.17,36.34,4.74,9.72,7.85,19.96,9.73,30.6,2.33,13.16,3.13,26.34,1.25,39.63-1.86,13.2-4.77,26.06-10.22,38.32-5.75,12.93-13.58,24.5-23.31,34.61-13.56,14.1-29.76,24.45-48.2,31.16-11.6,4.22-23.56,6.73-35.92,7.22-1.1.04-2.21-.28-3.31-.44-.01-.26-.03-.51-.04-.77.7-.22,1.42-.67,2.11-.64,3.99.23,7.44-1.2,10.77-3.2.39-.23,1.2.08,1.75.31.67.28,1.25.99,1.91,1.05.8.07,1.65-.34,2.48-.55-.29-.71-.58-1.43-1.08-2.67,2.74.37,5.26.72,8.52,1.16-.81-1.24-1.15-1.75-1.48-2.27.15-.11.3-.31.46-.31,10.99-.29,20.7-4.6,30.08-9.74,9.31-5.11,17.97-11.26,25.66-18.55,6.85-6.5,12.93-13.76,17.66-22.05,5.39-9.44,11.25-18.71,14.04-29.32,2.73-10.39,5.61-20.8,5.63-31.71,0-4.4.52-8.79.56-13.19.01-2.05-.58-4.11-1.5-6.11.13,3.04.62,6.12.33,9.12-.73,7.62-1.54,15.26-2.82,22.81-1.04,6.15-2.4,12.3-4.34,18.22-5.37,16.36-13.15,31.32-25.14,44.08-8.84,9.4-18.54,17.49-29.65,23.95-1.84,1.07-3.82,1.91-6.01,2.46,13.25-9.59,27.26-18.26,36.73-31.97-.21-.25-.43-.5-.64-.76-2.06,1.77-4.11,3.53-6.17,5.3-.18-.14-.36-.28-.54-.43.99-1.24,1.9-2.56,2.97-3.72,8.64-9.37,15.34-20.03,20-31.8,3.29-8.29,5.78-16.86,7.12-25.81,1.27-8.54,2.58-17.04,1.83-25.64-1.21-14.01-3.05-28.01-8.71-41.02-5.32-12.24-12.44-23.61-21.41-33.47-8.36-9.19-18.34-16.64-29.17-22.93-13.06-7.6-27.29-11.75-42.02-14.02-7.26-1.12-14.83-1.29-22.17-.73-16.28,1.24-31.71,5.9-46.14,13.62-14.56,7.8-27.19,17.99-37.42,30.97-6.52,8.26-11.97,17.25-15.82,27.06-2.4,6.14-4.24,12.51-6.28,18.78-1.87,5.74-2.96,11.6-3.45,17.66-.29,3.62-1.97,7.13-3.03,10.68-.24,0-.49,0-.73-.01Z"/>
      <path class="cls-1" d="m55.63,140.59c-.98-.59-1.69-1.02-2.72-1.64,2.64-1.64,1.67-5.65,5.22-6.46.35-.08.79-2.13.39-2.63-.88-1.11-2.27-1.82-4.38-3.37-.83,3.23-1.2,5.58-2.07,7.73-.58,1.42-1.68,2.8-2.9,3.74-1.12.86-2.7,1.44-4.11,1.53-1.33.09-3.01-.25-4-1.05-1.18-.96-.87-2.34.36-3.62.62-.65.61-2.08.57-3.14-.09-2.01-.8-4.18,2.61-3.98.67.04,1.53-.81,2.08-1.44,2.42-2.83,2.95-2.9,5.77-.45.37.32.78.58,1.17.87.3-.09.6-.17.9-.26-.36-1.44-.33-3.17-1.15-4.27-2.7-3.65.1-6.7.98-9.84.22-.78,2.8-1.13,4.3-1.16.44,0,.91,1.78,1.5,3.02,3.57,1.44,3.51,1.42,1.11,5.15-.45.69-.46,2.16-.02,2.84,1.74,2.69,3.77,5.18,5.63,7.8.32.45.54,1.18.43,1.71-.47,2.26.41,3.38,2.64,3.73.49.08,1.19.62,1.29,1.06.13.59-.04,1.43-.42,1.9-1.63,2.05.04,6.35-4.74,6.36-2.68,0-5.35,1.12-8.04,1.69-1.82.38-3.65.7-5.49.97-.28.04-.91-.39-.89-.56.05-.53.22-1.12.53-1.55,1.07-1.53,2.22-3.01,3.46-4.67Z"/>
      <path class="cls-1" d="m26.32,203.22c-5.8-6.48-10.87-13.42-14.14-21.54,4.71,7.18,9.43,14.36,14.14,21.54Z"/>
      <path class="cls-1" d="m65.26,235.49c6.97,3.03,13.71,5.96,20.35,8.84-3.08.54-17.71-5.65-20.35-8.84Z"/>
      <path class="cls-1" d="m45.09,222c5.63,3.87,11.26,7.73,16.9,11.6-.2.28-.4.56-.6.85-5.63-3.88-11.25-7.75-16.88-11.63.19-.27.38-.54.58-.82Z"/>
      <path class="cls-1" d="m128.25,192.7h8.62c.14.33.28.67.42,1-.71.5-1.36,1.29-2.14,1.46-2.45.55-4.58-.17-6.9-2.46Z"/>
      <path class="cls-1" d="m76.55,235.97c-2.35-.63-4.7-1.27-7.04-1.9l.45-.6c2.34.65,4.68,1.29,7.02,1.94-.14.19-.28.37-.42.56Z"/>
    </g>
  </g>
</svg>