<?xml version="1.0" standalone="no"?>
<!DOCTYPE svg PUBLIC "-//W3C//DTD SVG 1.1//EN" "http://www.w3.org/Graphics/SVG/1.1/DTD/svg11.dtd">
<svg xmlns="http://www.w3.org/2000/svg" id="Layer_2" data-name="Layer 2" viewBox="0 0 712.52 111.9" width="712.52001953125" height="111.9000015258789">
  <defs>
    <style>
      .cls-1 {
        fill: #0b6938;
      }

      .cls-1, .cls-2, .cls-3, .cls-4, .cls-5 {
        stroke-width: 0px;
      }

      .cls-2 {
        fill: #e73643;
      }

      .cls-3 {
        fill: #ddac8a;
      }

      .cls-4 {
        fill: #fdfdfd;
      }

      .cls-5 {
        fill: #ece8e7;
      }
    </style>
  </defs>
  <g id="Layer_1-2" data-name="Layer 1">
    <g>
      <path class="cls-4" d="m532.4,76.82h178.44c1.14-4.21-1.79-3.28-3.65-3.28-57.34-.03-114.68-.03-172.03-.02-.95,0-1.89.09-2.84.14-59.7,0-119.4,0-179.1,0-.95-.05-1.89-.14-2.84-.14-57.36,0-114.72,0-172.08,0-.54,0-1.09.02-1.63,0-2.87-.12-2.57,1.4-1.89,3.32h178.36c59.75,0,119.5,0,179.25,0Z"/>
      <path class="cls-5" d="m353.23,73.65c59.7,0,119.4,0,179.1,0,.02,1.06.05,2.11.07,3.17-59.75,0-119.5,0-179.25,0,.03-1.06.05-2.12.08-3.17Z"/>
      <path class="cls-2" d="m532.4,76.82c-.02-1.06-.05-2.11-.07-3.17.95-.05,1.89-.14,2.84-.14,57.34,0,114.68-.01,172.03.02,1.86,0,4.79-.92,3.65,3.28h-178.44Z"/>
      <path class="cls-1" d="m353.23,73.65c-.03,1.06-.05,2.12-.08,3.17-59.39,0-118.77,0-178.36,0-.68-1.93-.98-3.45,1.89-3.32.54.02,1.08,0,1.63,0,57.36,0,114.72,0,172.08,0,.95,0,1.89.09,2.84.14Z"/>
      <path class="cls-3" d="m141.75,10.81c.7.82,1.54,1.56,2.06,2.48.29.51.06,1.32.06,2,0,27.15,0,54.29,0,81.44,0,.94.17,1.97-.15,2.8-.2.52-1.17.95-1.83,1-.38.03-1.02-.69-1.21-1.2-.22-.6-.08-1.33-.08-2.01,0-27.82,0-55.64,0-83.46,0-.78.12-1.57.19-2.35.32-.23.64-.46.96-.7Z"/>
      <path class="cls-3" d="m100.2,43.53c-.91,1.65-1.68,3.04-2.63,4.75-4.81-1.45-9.38-1.38-12.15,3.68-1.62,2.96-1.42,6.02.57,8.76,2.91,4.01,6.95,4.14,11.43,2.69.91,1.61,1.76,3.1,2.6,4.58-5.79,3.74-12.9,2.8-17.68-2.22-4.69-4.93-5.23-12.77-1.26-18.21,4.42-6.05,11.55-7.67,19.12-4.03Z"/>
      <path class="cls-3" d="m37.74,85.01c.96,1.57,1.79,2.93,2.79,4.57-3.64,3.49-6.1,7.77-2.7,12.3,1.59,2.11,5.09,3.83,7.76,3.86,4.8.06,7.12-3.7,8.05-8.3h5.22c.54,6.42-3.83,12.29-10.31,13.99-6.79,1.79-13.96-1.59-16.87-7.93-3.1-6.77-.9-13.89,6.06-18.49Z"/>
      <path class="cls-3" d="m65.59,43.6c-.93,1.67-1.7,3.05-2.57,4.61-1.22-.24-2.36-.54-3.51-.68-3.56-.45-6.36.86-8.32,3.83-1.89,2.86-1.91,5.82-.16,8.75,1.84,3.07,4.7,4.83,8.14,4,3.75-.91,5.18.7,6,3.81-4.69,3.7-11.89,3.02-16.78-1.59-5.18-4.88-6-13.08-1.88-18.79,4.31-5.98,11.96-7.69,19.08-3.94Z"/>
      <path class="cls-3" d="m59.04,14.3h-5.33c-.2-6.92,4.18-12.38,11.04-13.96,6.58-1.51,13.65,2.09,16.33,8.31,2.87,6.65.63,13.68-6.22,18.27-.91-1.55-1.81-3.08-2.78-4.74,3.61-3.28,5.66-6.94,3.3-11.56-1.69-3.3-4.59-4.89-8.36-4.53-4.94.47-7.11,3.78-7.97,8.21Z"/>
      <path class="cls-3" d="m12.59,68.32c1.1-2.83,1.97-5.18,6.23-3.98,4.36,1.23,8.76-2.72,9.34-7.41.56-4.54-2.98-8.99-7.58-9.26-1.7-.1-3.44.33-5.53.56-.71-1.26-1.55-2.74-2.37-4.19,5.44-3.86,12.59-2.95,17.39,2.01,5.06,5.22,5.5,13.18,1.05,18.83-4.54,5.77-11.96,7.17-18.54,3.45Z"/>
      <path class="cls-3" d="m90.94,78.98c1.01-1.69,1.88-3.17,2.76-4.64,6.54,3.76,9.06,10.83,6.46,17.5-2.51,6.44-9.38,10.29-15.99,8.96-7.24-1.45-11.79-6.91-11.55-14.09h5.2c.98,4.43,3.12,7.83,8.08,8.26,3.91.33,6.85-1.32,8.52-4.92,2.05-4.43.12-7.8-3.48-11.06Z"/>
      <path class="cls-3" d="m67.47,11.84c1,1.7,1.87,3.17,2.82,4.8-3.68,3.19-5.66,6.84-3.34,11.5,1.68,3.38,4.68,4.98,8.34,4.61,4.85-.49,7.25-3.73,8.01-8.41h5.22c.5,6.67-3.64,12.11-10.47,13.91-6.66,1.76-13.71-1.53-16.61-7.73-3.16-6.77-1.03-13.83,6.02-18.68Z"/>
      <path class="cls-3" d="m42.29,95.19c3.71-3.06,5.53-6.6,3.48-11.14-1.63-3.62-4.64-5.16-8.55-4.82-4.84.42-6.85,3.77-8.01,8.13h-5.09c-.6-6.13,3.8-12.06,10.08-13.69,7.1-1.84,14.34,1.6,17.14,8.14,2.91,6.8.64,13.83-6.17,18.09-.94-1.53-1.88-3.07-2.88-4.7Z"/>
      <path class="cls-3" d="m88.89,87.37h-5.32c-1.07-4.56-3.41-8.14-8.74-8.33-3.59-.13-6.25,1.62-7.82,4.81-2.25,4.55-.19,8.04,3.34,11.25-.89,1.55-1.74,3.02-2.56,4.44-5.79-1.61-8.83-9.95-7.07-15.92,1.96-6.63,8.51-11.29,14.99-10.55,7.83.89,12.84,6.17,13.17,14.32Z"/>
      <path class="cls-3" d="m21.59,32.97c-.89,1.53-1.74,3-2.58,4.46-6.1-3.06-8.85-9.64-6.95-16.09,2.11-7.18,8.32-11.08,16.25-10.19,6.62.74,11.35,6.15,11.91,13.97h-5.54c-.74-4.42-3.04-7.66-7.88-8.23-3.74-.44-6.59,1.25-8.34,4.51-2.49,4.63-.42,8.24,3.14,11.57Z"/>
      <path class="cls-3" d="m90.94,57.12c.92-1.56,1.73-2.94,2.63-4.47,4.7,1.47,8.96,1.36,11.84-3.2,1.93-3.05,1.75-6.2-.29-9.11-2.82-4.02-6.74-4.51-11.37-2.77-.93-1.57-1.79-3.03-2.64-4.46,5.3-4.58,13.7-1.97,17.37,1.83,5.04,5.23,5.43,13.64.97,19.23-3.9,4.89-12.7,7.37-18.51,2.94Z"/>
      <path class="cls-3" d="m23.83,24.38h5.12c1.93,5.9,4.55,8.56,8.77,8.53,3.68-.02,6.45-1.73,8-5.17,1.73-3.82.91-6.6-3.45-10.99.88-1.48,1.81-3.04,2.74-4.61,6.45,3.66,8.98,10.67,6.41,17.38-2.53,6.6-9.44,10.46-16.25,9.07-6.92-1.42-11.55-7.12-11.35-14.21Z"/>
      <path class="cls-3" d="m21.63,54.71c-.84,1.48-1.69,2.96-2.6,4.57-4.77-1.79-8.8-1.28-11.67,2.94-2.13,3.12-2.05,6.4.17,9.42,2.88,3.91,6.8,4.49,11.38,2.62.94,1.65,1.78,3.13,2.61,4.58-5.49,3.83-13.13,2.73-17.73-2.35-4.97-5.49-5.06-13.59-.21-19.17,4.5-5.19,12.23-6.36,18.05-2.6Z"/>
    </g>
    <g>
      <path class="cls-3" d="m189.61,97.92c-.89.39-2.68.78-4.97.78-5.3,0-9.29-2.91-9.29-8.26s3.99-8.57,9.82-8.57c2.34,0,3.82.44,4.47.73l-.59,1.72c-.92-.39-2.23-.68-3.8-.68-4.41,0-7.34,2.45-7.34,6.73,0,4,2.65,6.56,7.23,6.56,1.48,0,2.99-.27,3.96-.68l.5,1.67Z"/>
      <path class="cls-3" d="m195.81,93.32l-1.95,5.13h-2.51l6.39-16.32h2.93l6.42,16.32h-2.6l-2.01-5.13h-6.67Zm6.17-1.65l-1.84-4.7c-.42-1.07-.7-2.03-.98-2.98h-.06c-.28.97-.59,1.96-.95,2.95l-1.84,4.72h5.67Z"/>
      <path class="cls-3" d="m225.59,91.29c-.14-2.28-.31-5.01-.28-7.05h-.08c-.64,1.91-1.42,3.95-2.37,6.2l-3.32,7.92h-1.84l-3.04-7.77c-.89-2.3-1.65-4.41-2.18-6.34h-.06c-.06,2.03-.2,4.77-.36,7.22l-.5,7h-2.32l1.31-16.32h3.1l3.21,7.89c.78,2.01,1.42,3.8,1.9,5.5h.08c.47-1.65,1.14-3.44,1.98-5.5l3.35-7.89h3.1l1.17,16.32h-2.37l-.47-7.17Z"/>
      <path class="cls-3" d="m241.92,90.8h-7.31v5.88h8.15v1.77h-10.58v-16.32h10.16v1.77h-7.73v5.16h7.31v1.74Z"/>
      <path class="cls-3" d="m245.91,82.35c1.23-.22,2.99-.34,4.66-.34,2.6,0,4.27.41,5.44,1.33.95.73,1.48,1.84,1.48,3.1,0,2.16-1.56,3.58-3.54,4.17v.07c1.45.44,2.32,1.6,2.76,3.29.61,2.28,1.06,3.85,1.45,4.48h-2.51c-.31-.46-.73-1.86-1.26-3.9-.56-2.25-1.56-3.1-3.77-3.17h-2.29v7.07h-2.43v-16.1Zm2.43,7.43h2.48c2.6,0,4.24-1.24,4.24-3.1,0-2.11-1.76-3.03-4.33-3.05-1.17,0-2.01.1-2.4.19v5.96Z"/>
      <path class="cls-3" d="m270.67,90.8h-7.31v5.88h8.15v1.77h-10.58v-16.32h10.16v1.77h-7.73v5.16h7.31v1.74Z"/>
      <path class="cls-3" d="m280.58,82.35c1.48-.19,3.24-.34,5.16-.34,3.49,0,5.97.7,7.62,2.03,1.67,1.33,2.65,3.22,2.65,5.86s-.95,4.84-2.71,6.34c-1.76,1.53-4.66,2.35-8.32,2.35-1.73,0-3.18-.07-4.41-.19v-16.05Zm2.43,14.43c.61.1,1.51.12,2.46.12,5.19,0,8.01-2.52,8.01-6.93.03-3.85-2.48-6.3-7.62-6.3-1.26,0-2.2.1-2.85.22v12.88Z"/>
      <path class="cls-3" d="m301.6,82.13v16.32h-2.43v-16.32h2.43Z"/>
      <path class="cls-3" d="m324.9,97.92c-.89.39-2.68.78-4.97.78-5.3,0-9.29-2.91-9.29-8.26s3.99-8.57,9.82-8.57c2.34,0,3.82.44,4.47.73l-.59,1.72c-.92-.39-2.23-.68-3.8-.68-4.41,0-7.34,2.45-7.34,6.73,0,4,2.65,6.56,7.23,6.56,1.48,0,2.99-.27,3.96-.68l.5,1.67Z"/>
      <path class="cls-3" d="m343.43,90.12c0,5.62-3.94,8.6-8.74,8.6s-8.46-3.34-8.46-8.28c0-5.18,3.71-8.57,8.74-8.57s8.46,3.41,8.46,8.26Zm-14.6.27c0,3.49,2.18,6.61,6,6.61s6.03-3.08,6.03-6.78c0-3.25-1.95-6.63-6-6.63s-6.03,3.22-6.03,6.8Z"/>
      <path class="cls-3" d="m362.44,91.29c-.14-2.28-.31-5.01-.28-7.05h-.08c-.64,1.91-1.42,3.95-2.37,6.2l-3.32,7.92h-1.84l-3.04-7.77c-.89-2.3-1.65-4.41-2.18-6.34h-.06c-.06,2.03-.2,4.77-.36,7.22l-.5,7h-2.32l1.31-16.32h3.1l3.21,7.89c.78,2.01,1.42,3.8,1.9,5.5h.08c.47-1.65,1.14-3.44,1.98-5.5l3.35-7.89h3.1l1.17,16.32h-2.37l-.47-7.17Z"/>
      <path class="cls-3" d="m384.88,91.29c-.14-2.28-.31-5.01-.28-7.05h-.08c-.64,1.91-1.42,3.95-2.37,6.2l-3.32,7.92h-1.84l-3.04-7.77c-.89-2.3-1.65-4.41-2.18-6.34h-.06c-.06,2.03-.2,4.77-.36,7.22l-.5,7h-2.32l1.31-16.32h3.1l3.21,7.89c.78,2.01,1.42,3.8,1.9,5.5h.08c.47-1.65,1.14-3.44,1.98-5.5l3.35-7.89h3.1l1.17,16.32h-2.37l-.47-7.17Z"/>
      <path class="cls-3" d="m401.21,90.8h-7.31v5.88h8.15v1.77h-10.58v-16.32h10.16v1.77h-7.73v5.16h7.31v1.74Z"/>
      <path class="cls-3" d="m405.21,82.35c1.23-.22,2.99-.34,4.66-.34,2.6,0,4.27.41,5.44,1.33.95.73,1.48,1.84,1.48,3.1,0,2.16-1.56,3.58-3.54,4.17v.07c1.45.44,2.32,1.6,2.76,3.29.61,2.28,1.06,3.85,1.45,4.48h-2.51c-.31-.46-.73-1.86-1.26-3.9-.56-2.25-1.56-3.1-3.77-3.17h-2.29v7.07h-2.43v-16.1Zm2.43,7.43h2.48c2.59,0,4.24-1.24,4.24-3.1,0-2.11-1.76-3.03-4.33-3.05-1.17,0-2.01.1-2.4.19v5.96Z"/>
      <path class="cls-3" d="m433.45,97.92c-.89.39-2.68.78-4.97.78-5.3,0-9.29-2.91-9.29-8.26s3.99-8.57,9.82-8.57c2.34,0,3.82.44,4.47.73l-.59,1.72c-.92-.39-2.23-.68-3.8-.68-4.41,0-7.34,2.45-7.34,6.73,0,4,2.65,6.56,7.23,6.56,1.48,0,2.99-.27,3.96-.68l.5,1.67Z"/>
      <path class="cls-3" d="m438.92,82.13v16.32h-2.43v-16.32h2.43Z"/>
      <path class="cls-3" d="m459.24,90.12c0,5.62-3.94,8.6-8.74,8.6s-8.46-3.34-8.46-8.28c0-5.18,3.71-8.57,8.74-8.57s8.46,3.41,8.46,8.26Zm-14.6.27c0,3.49,2.18,6.61,6,6.61s6.03-3.08,6.03-6.78c0-3.25-1.95-6.63-6-6.63s-6.03,3.22-6.03,6.8Z"/>
      <path class="cls-3" d="m470.74,82.13v16.32h-2.43v-16.32h2.43Z"/>
      <path class="cls-3" d="m478.56,83.92h-5.72v-1.79h13.93v1.79h-5.75v14.53h-2.46v-14.53Z"/>
      <path class="cls-3" d="m489.81,93.32l-1.95,5.13h-2.51l6.39-16.32h2.93l6.42,16.32h-2.6l-2.01-5.13h-6.67Zm6.17-1.65l-1.84-4.7c-.42-1.07-.7-2.03-.98-2.98h-.06c-.28.97-.59,1.96-.95,2.95l-1.84,4.72h5.67Z"/>
      <path class="cls-3" d="m503.85,82.13h2.43v14.55h8.04v1.77h-10.47v-16.32Z"/>
      <path class="cls-3" d="m519.45,82.13v16.32h-2.43v-16.32h2.43Z"/>
      <path class="cls-3" d="m526.74,93.32l-1.95,5.13h-2.51l6.39-16.32h2.93l6.42,16.32h-2.6l-2.01-5.13h-6.67Zm6.17-1.65l-1.84-4.7c-.42-1.07-.7-2.03-.98-2.98h-.06c-.28.97-.59,1.96-.95,2.95l-1.84,4.72h5.67Z"/>
      <path class="cls-3" d="m540.78,98.45v-16.32h2.65l6.03,8.26c1.4,1.91,2.48,3.63,3.38,5.3l.06-.02c-.22-2.18-.28-4.17-.28-6.71v-6.83h2.29v16.32h-2.46l-5.97-8.28c-1.31-1.82-2.57-3.68-3.52-5.45l-.08.02c.14,2.06.2,4.02.2,6.73v6.97h-2.29Z"/>
      <path class="cls-3" d="m568.88,90.8h-7.31v5.88h8.15v1.77h-10.58v-16.32h10.16v1.77h-7.73v5.16h7.31v1.74Z"/>
      <path class="cls-3" d="m581.84,93.32l-1.95,5.13h-2.51l6.39-16.32h2.93l6.42,16.32h-2.6l-2.01-5.13h-6.67Zm6.17-1.65l-1.84-4.7c-.42-1.07-.7-2.03-.98-2.98h-.06c-.28.97-.59,1.96-.95,2.95l-1.84,4.72h5.67Z"/>
      <path class="cls-3" d="m595.88,82.13h2.43v14.55h8.04v1.77h-10.47v-16.32Z"/>
      <path class="cls-3" d="m609.05,82.13h2.43v14.55h8.04v1.77h-10.47v-16.32Z"/>
      <path class="cls-3" d="m622.36,81.87c-.64,2.03-1.84,4.62-2.62,5.74l-1.56.17c.61-1.43,1.34-3.95,1.65-5.69l2.54-.22Z"/>
      <path class="cls-3" d="m634.87,90.8h-7.31v5.88h8.15v1.77h-10.58v-16.32h10.16v1.77h-7.73v5.16h7.31v1.74Z"/>
      <path class="cls-3" d="m638.53,95.89c1.09.58,2.68,1.07,4.35,1.07,2.48,0,3.94-1.14,3.94-2.79,0-1.53-1-2.4-3.54-3.25-3.07-.94-4.97-2.32-4.97-4.62,0-2.54,2.43-4.43,6.08-4.43,1.93,0,3.32.39,4.16.8l-.67,1.72c-.61-.29-1.87-.77-3.57-.77-2.57,0-3.54,1.33-3.54,2.45,0,1.53,1.14,2.28,3.74,3.15,3.18,1.07,4.8,2.4,4.8,4.79,0,2.52-2.15,4.7-6.59,4.7-1.81,0-3.8-.46-4.8-1.04l.61-1.77Z"/>
      <path class="cls-3" d="m656.19,83.92h-5.72v-1.79h13.93v1.79h-5.75v14.53h-2.46v-14.53Z"/>
      <path class="cls-3" d="m676.24,90.8h-7.31v5.88h8.15v1.77h-10.58v-16.32h10.16v1.77h-7.73v5.16h7.31v1.74Z"/>
      <path class="cls-3" d="m680.23,82.35c1.23-.22,2.99-.34,4.66-.34,2.6,0,4.27.41,5.44,1.33.95.73,1.48,1.84,1.48,3.1,0,2.16-1.56,3.58-3.54,4.17v.07c1.45.44,2.32,1.6,2.76,3.29.61,2.28,1.06,3.85,1.45,4.48h-2.51c-.31-.46-.73-1.86-1.26-3.9-.56-2.25-1.56-3.1-3.77-3.17h-2.29v7.07h-2.43v-16.1Zm2.43,7.43h2.48c2.59,0,4.24-1.24,4.24-3.1,0-2.11-1.76-3.03-4.33-3.05-1.17,0-2.01.1-2.4.19v5.96Z"/>
      <path class="cls-3" d="m711.4,90.12c0,5.62-3.94,8.6-8.74,8.6s-8.46-3.34-8.46-8.28c0-5.18,3.71-8.57,8.74-8.57s8.46,3.41,8.46,8.26Zm-14.6.27c0,3.49,2.18,6.61,6,6.61s6.03-3.08,6.03-6.78c0-3.25-1.95-6.63-6-6.63s-6.03,3.22-6.03,6.8Z"/>
    </g>
    <g>
      <path class="cls-3" d="m195.39,36.62c-1.23.58-3.69,1.17-6.85,1.17-7.31,0-12.81-4.37-12.81-12.42s5.5-12.89,13.55-12.89c3.23,0,5.27.66,6.16,1.09l-.81,2.59c-1.27-.58-3.08-1.02-5.23-1.02-6.08,0-10.12,3.68-10.12,10.13,0,6.01,3.66,9.87,9.97,9.87,2.04,0,4.12-.4,5.46-1.02l.69,2.51Z"/>
      <path class="cls-3" d="m203.94,29.7l-2.69,7.72h-3.46l8.81-24.55h4.04l8.85,24.55h-3.58l-2.77-7.72h-9.2Zm8.5-2.48l-2.54-7.07c-.58-1.6-.96-3.06-1.35-4.48h-.08c-.38,1.46-.81,2.95-1.31,4.44l-2.54,7.1h7.81Zm1.85-19.92l-4.89,4.26h-2.77l3.58-4.26h4.08Z"/>
      <path class="cls-3" d="m245,26.64c-.19-3.42-.42-7.54-.38-10.6h-.12c-.89,2.88-1.96,5.94-3.27,9.32l-4.58,11.91h-2.54l-4.19-11.69c-1.23-3.46-2.27-6.63-3-9.54h-.08c-.08,3.06-.27,7.18-.5,10.85l-.69,10.53h-3.19l1.81-24.55h4.27l4.43,11.87c1.08,3.02,1.96,5.72,2.62,8.27h.12c.65-2.48,1.58-5.17,2.73-8.27l4.62-11.87h4.27l1.62,24.55h-3.27l-.65-10.78Z"/>
      <path class="cls-3" d="m257.9,29.7l-2.69,7.72h-3.46l8.81-24.55h4.04l8.85,24.55h-3.58l-2.77-7.72h-9.2Zm8.5-2.48l-2.54-7.07c-.58-1.6-.96-3.06-1.35-4.48h-.08c-.38,1.46-.81,2.95-1.31,4.44l-2.54,7.1h7.81Z"/>
      <path class="cls-3" d="m277.26,13.2c1.69-.33,4.12-.51,6.43-.51,3.58,0,5.89.62,7.5,2,1.31,1.09,2.04,2.77,2.04,4.66,0,3.24-2.16,5.39-4.89,6.27v.11c2,.66,3.19,2.4,3.81,4.95.85,3.42,1.46,5.79,2,6.74h-3.46c-.42-.69-1-2.8-1.73-5.86-.77-3.39-2.16-4.66-5.2-4.77h-3.16v10.64h-3.35V13.2Zm3.35,11.18h3.43c3.58,0,5.85-1.86,5.85-4.66,0-3.17-2.42-4.55-5.96-4.59-1.62,0-2.77.15-3.31.29v8.96Z"/>
      <path class="cls-3" d="m302.35,29.7l-2.69,7.72h-3.46l8.81-24.55h4.04l8.85,24.55h-3.58l-2.77-7.72h-9.2Zm8.5-2.48l-2.54-7.07c-.58-1.6-.96-3.06-1.35-4.48h-.08c-.38,1.46-.81,2.95-1.31,4.44l-2.54,7.1h7.81Z"/>
      <path class="cls-3" d="m329.87,13.2c2.04-.29,4.46-.51,7.12-.51,4.81,0,8.24,1.06,10.51,3.06,2.31,2,3.66,4.84,3.66,8.81s-1.31,7.28-3.73,9.54c-2.42,2.29-6.43,3.53-11.47,3.53-2.39,0-4.39-.11-6.08-.29V13.2Zm3.35,21.71c.85.15,2.08.18,3.39.18,7.16,0,11.04-3.79,11.04-10.42.04-5.79-3.42-9.47-10.51-9.47-1.73,0-3.04.15-3.93.33v19.38Z"/>
      <path class="cls-3" d="m368.94,25.92h-10.08v8.85h11.24v2.66h-14.58V12.88h14.01v2.66h-10.66v7.76h10.08v2.62Z"/>
      <path class="cls-3" d="m400.73,36.62c-1.23.58-3.69,1.17-6.85,1.17-7.31,0-12.81-4.37-12.81-12.42s5.5-12.89,13.55-12.89c3.23,0,5.27.66,6.16,1.09l-.81,2.59c-1.27-.58-3.08-1.02-5.23-1.02-6.08,0-10.12,3.68-10.12,10.13,0,6.01,3.66,9.87,9.97,9.87,2.04,0,4.12-.4,5.46-1.02l.69,2.51Z"/>
      <path class="cls-3" d="m426.28,24.9c0,8.45-5.43,12.93-12.04,12.93s-11.66-5.03-11.66-12.46c0-7.79,5.12-12.89,12.04-12.89s11.66,5.14,11.66,12.42Zm-20.13.4c0,5.25,3,9.94,8.27,9.94s8.31-4.63,8.31-10.2c0-4.88-2.69-9.98-8.27-9.98s-8.31,4.84-8.31,10.24Z"/>
      <path class="cls-3" d="m452.49,26.64c-.19-3.42-.42-7.54-.38-10.6h-.12c-.88,2.88-1.96,5.94-3.27,9.32l-4.58,11.91h-2.54l-4.2-11.69c-1.23-3.46-2.27-6.63-3-9.54h-.08c-.08,3.06-.27,7.18-.5,10.85l-.69,10.53h-3.19l1.81-24.55h4.27l4.42,11.87c1.08,3.02,1.96,5.72,2.62,8.27h.12c.65-2.48,1.58-5.17,2.73-8.27l4.62-11.87h4.27l1.62,24.55h-3.27l-.65-10.78Z"/>
      <path class="cls-3" d="m475.01,25.92h-10.08v8.85h11.24v2.66h-14.58V12.88h14.01v2.66h-10.66v7.76h10.08v2.62Z"/>
      <path class="cls-3" d="m480.52,13.2c1.69-.33,4.12-.51,6.43-.51,3.58,0,5.89.62,7.5,2,1.31,1.09,2.04,2.77,2.04,4.66,0,3.24-2.15,5.39-4.89,6.27v.11c2,.66,3.19,2.4,3.81,4.95.85,3.42,1.46,5.79,2,6.74h-3.46c-.42-.69-1-2.8-1.73-5.86-.77-3.39-2.15-4.66-5.19-4.77h-3.16v10.64h-3.35V13.2Zm3.35,11.18h3.42c3.58,0,5.85-1.86,5.85-4.66,0-3.17-2.42-4.55-5.96-4.59-1.62,0-2.77.15-3.31.29v8.96Z"/>
      <path class="cls-3" d="m519.46,36.62c-1.23.58-3.69,1.17-6.85,1.17-7.31,0-12.81-4.37-12.81-12.42s5.5-12.89,13.55-12.89c3.23,0,5.27.66,6.16,1.09l-.81,2.59c-1.27-.58-3.08-1.02-5.23-1.02-6.08,0-10.12,3.68-10.12,10.13,0,6.01,3.66,9.87,9.97,9.87,2.04,0,4.12-.4,5.46-1.02l.69,2.51Z"/>
      <path class="cls-3" d="m527.01,12.88v24.55h-3.35V12.88h3.35Z"/>
      <path class="cls-3" d="m555.03,24.9c0,8.45-5.43,12.93-12.04,12.93s-11.66-5.03-11.66-12.46c0-7.79,5.12-12.89,12.04-12.89s11.66,5.14,11.66,12.42Zm-20.13.4c0,5.25,3,9.94,8.27,9.94s8.31-4.63,8.31-10.2c0-4.88-2.69-9.98-8.27-9.98s-8.31,4.84-8.31,10.24Z"/>
      <path class="cls-3" d="m570.88,12.88v24.55h-3.35V12.88h3.35Z"/>
      <path class="cls-3" d="m581.66,15.57h-7.89v-2.7h19.2v2.7h-7.93v21.85h-3.39V15.57Z"/>
      <path class="cls-3" d="m597.17,29.7l-2.69,7.72h-3.46l8.81-24.55h4.04l8.85,24.55h-3.58l-2.77-7.72h-9.2Zm8.5-2.48l-2.54-7.07c-.58-1.6-.96-3.06-1.35-4.48h-.08c-.38,1.46-.81,2.95-1.31,4.44l-2.54,7.1h7.81Z"/>
      <path class="cls-3" d="m616.53,12.88h3.35v21.89h11.08v2.66h-14.43V12.88Z"/>
      <path class="cls-3" d="m638.05,12.88v24.55h-3.35V12.88h3.35Z"/>
      <path class="cls-3" d="m648.09,29.7l-2.69,7.72h-3.46l8.81-24.55h4.04l8.85,24.55h-3.58l-2.77-7.72h-9.2Zm8.5-2.48l-2.54-7.07c-.58-1.6-.96-3.06-1.35-4.48h-.08c-.38,1.46-.81,2.95-1.31,4.44l-2.54,7.1h7.81Z"/>
      <path class="cls-3" d="m667.45,37.42V12.88h3.66l8.31,12.42c1.92,2.88,3.42,5.46,4.66,7.98l.08-.04c-.31-3.28-.38-6.26-.38-10.09v-10.27h3.16v24.55h-3.39l-8.24-12.46c-1.81-2.73-3.54-5.54-4.85-8.2l-.12.04c.19,3.1.27,6.05.27,10.12v10.49h-3.16Z"/>
      <path class="cls-3" d="m696.97,29.7l-2.69,7.72h-3.46l8.81-24.55h4.04l8.85,24.55h-3.58l-2.77-7.72h-9.2Zm8.5-2.48l-2.54-7.07c-.58-1.6-.96-3.06-1.35-4.48h-.08c-.38,1.46-.81,2.95-1.31,4.44l-2.54,7.1h7.81Z"/>
    </g>
    <g>
      <path class="cls-3" d="m177.15,46.7c1.96-.28,4.28-.5,6.83-.5,4.61,0,7.9,1.03,10.08,2.98,2.21,1.95,3.51,4.71,3.51,8.58s-1.25,7.09-3.58,9.29c-2.33,2.23-6.16,3.44-11,3.44-2.29,0-4.21-.11-5.83-.28v-23.5Zm3.21,21.13c.81.14,1.99.18,3.25.18,6.87,0,10.59-3.69,10.59-10.14.04-5.64-3.28-9.22-10.08-9.22-1.66,0-2.92.14-3.76.32v18.86Z"/>
      <path class="cls-3" d="m214.61,59.07h-9.67v8.61h10.78v2.59h-13.99v-23.89h13.44v2.59h-10.22v7.55h9.67v2.55Z"/>
      <path class="cls-3" d="m219.89,46.38h3.21v21.3h10.63v2.59h-13.84v-23.89Z"/>
      <path class="cls-3" d="m245.14,46.66c1.55-.25,3.58-.46,6.16-.46,3.17,0,5.5.71,6.98,1.99,1.37,1.13,2.18,2.87,2.18,5s-.66,3.86-1.92,5.1c-1.7,1.74-4.47,2.62-7.6,2.62-.96,0-1.85-.04-2.58-.21v9.57h-3.21v-23.61Zm3.21,11.52c.7.18,1.59.25,2.66.25,3.88,0,6.24-1.81,6.24-5.1s-2.33-4.68-5.87-4.68c-1.4,0-2.47.11-3.03.25v9.29Z"/>
      <path class="cls-3" d="m277.66,59.07h-9.67v8.61h10.78v2.59h-13.99v-23.89h13.44v2.59h-10.22v7.55h9.67v2.55Z"/>
      <path class="cls-3" d="m282.94,46.7c1.62-.32,3.95-.5,6.16-.5,3.43,0,5.65.6,7.2,1.95,1.25,1.06,1.96,2.69,1.96,4.54,0,3.15-2.07,5.25-4.69,6.1v.11c1.92.64,3.06,2.34,3.65,4.82.81,3.33,1.4,5.64,1.92,6.56h-3.32c-.41-.67-.96-2.73-1.66-5.71-.74-3.3-2.07-4.54-4.98-4.64h-3.03v10.35h-3.21v-23.57Zm3.21,10.88h3.29c3.43,0,5.61-1.81,5.61-4.54,0-3.08-2.33-4.43-5.72-4.47-1.55,0-2.66.14-3.17.28v8.72Z"/>
      <path class="cls-3" d="m306.01,46.38v14.14c0,5.35,2.47,7.62,5.79,7.62,3.69,0,6.05-2.34,6.05-7.62v-14.14h3.25v13.93c0,7.34-4.02,10.35-9.41,10.35-5.09,0-8.93-2.8-8.93-10.21v-14.07h3.25Zm11.44-5.42l-4.72,4.15h-2.62l3.4-4.15h3.95Z"/>
    </g>
  </g>
</svg>