<?xml version="1.0" standalone="no"?>
<!DOCTYPE svg PUBLIC "-//W3C//DTD SVG 1.1//EN" "http://www.w3.org/Graphics/SVG/1.1/DTD/svg11.dtd">
<svg xmlns="http://www.w3.org/2000/svg" id="Layer_2" data-name="Layer 2" viewBox="0 0 1481.3 169.35" width="1481.300048828125" height="169.35000610351562">
  <defs>
    <style>
      .cls-1 {
        fill: #ddac8a;
        stroke-width: 0px;
      }
    </style>
  </defs>
  <g id="Layer_1-2" data-name="Layer 1">
    <g>
      <path class="cls-1" d="m730.64,83.83c3.5,6.42,7.55,11.95,9.71,18.13,7.28,20.89-2.49,41.14-20.44,52.11-10.42,6.37-21.8,7.76-33.65,7.68-14.04-.09-28.08.05-42.12.04-5.91,0-11.83-.2-17.74-.2-2.27,0-2.94-1.06-2.93-3.15.04-30.16.06-60.32.06-90.49,0-18.84-.03-37.68-.06-56.51,0-1.96.03-3.5,2.78-3.48,22.88.11,45.77-.42,68.63.31,19.41.62,34.58,9.76,43.51,27.24,7.75,15.16,5.41,33.72-6.31,46.58-.67.73-1.26,1.53-1.43,1.74Zm-63.81-63.72h0c-9.13,0-18.27.13-27.4-.09-3.02-.07-3.71.9-3.69,3.72.1,13.83.04,27.66-.02,41.48-.02,4.22-.1,4.23,4.21,4.23,17.26,0,34.53.14,51.79-.05,9.53-.11,18.32,2.13,26.68,6.6.81.43,2.61.18,3.29-.46,9.63-9.05,11.88-25.02,5.01-36.32-7.5-12.34-18.83-18.45-33.07-19.04-8.92-.37-17.86-.07-26.8-.07Zm-.16,129.54c0-.06,0-.12,0-.18,9.33,0,18.69.51,27.98-.11,15.88-1.06,27.88-8.39,34.15-23.59,4.48-10.84.6-23.65-6.63-31.4-1.27-1.36-2.45-1.73-4.19-.67-6.59,4.02-13.85,6.18-21.52,6.38-10.31.28-20.63.15-30.94.16-8.83,0-17.66-.03-26.49-.09-1.91-.01-3.35.25-3.34,2.7.03,14.62,0,29.24-.03,43.86,0,2.09.73,3.02,3.03,2.99,9.33-.11,18.66-.05,27.99-.05Zm40.8-63.96l.11-1.81c-3.91-.8-7.8-2.24-11.72-2.29-19.25-.24-38.5-.07-57.75-.16-3.8-.02-1.92,2.75-2.32,4.27-.45,1.7.59,2.48,2.4,2.48,18.85-.06,37.7.08,56.55-.19,4.26-.06,8.49-1.5,12.74-2.3Z"/>
      <path class="cls-1" d="m486.98,169.34c-.3,0-.6,0-.9,0-4.87,0-4.98,0-4.85-4.86.07-2.77-.92-3.82-3.75-4.13-19.34-2.17-35.09-11.04-48.13-25.39-10.39-11.43-16.23-24.76-18.46-39.82-1.39-9.39-.96-18.73,1.37-27.97,6.15-24.33,21.08-41.48,43.39-52.38,6.9-3.37,14.44-5.13,22.09-5.94,2.57-.27,3.51-1.04,3.49-3.61-.05-5.38.05-5.38,5.61-5.19,6.04.21,6.11.21,6.32,6.27.07,1.85.94,2.34,2.54,2.62,4.5.8,9.04,1.52,13.46,2.67,11.04,2.88,20.6,8.54,29.01,16.17,9.17,8.31,16.54,17.93,20.85,29.62,4.18,11.32,5.44,23,4.35,35.04-.87,9.56-3.12,18.7-7.74,27.09-11.61,21.1-29.04,34.74-52.73,40.02-2.22.5-4.54.65-6.82.77-2.15.12-2.95,1.08-2.95,3.22-.02,5.82-.09,5.82-6.15,5.79Zm-5.79-84.75c0-19.74.01-39.47,0-59.21,0-4.61-.05-4.61-4.53-4.08-15.46,1.81-27.95,9.33-38.05,20.7-13.61,15.33-18.55,33.36-15.34,53.63,1.84,11.64,6.66,21.83,14.41,30.7,10.56,12.08,23.43,19.97,39.59,21.94,3.71.45,3.92.22,3.92-3.58,0-20.04,0-40.07,0-60.11Zm12.03-.1h.04c0,3.51.01,7.02,0,10.53-.06,17.04-.1,34.08-.22,51.12-.02,2.25,1.09,2.4,2.86,2.22,10.88-1.11,20.71-4.92,29.39-11.55,11.77-9,20.44-20.25,24.2-34.76,2.47-9.57,2.78-19.25,1.16-29.1-2.15-13.12-8.16-24.13-17.42-33.34-10.23-10.17-22.22-17.11-37-18.5-2.32-.22-3.04-.14-3.03,2.32.07,20.35.04,40.71.04,61.06Z"/>
      <path class="cls-1" d="m331.58,100.52c.36.89.44,1.6.84,2.02,12.49,13.15,25.12,26.17,37.47,39.46,4.78,5.15,10.61,6.71,17.19,6.87,2.51.06,5.02.04,7.53,0,1.63-.02,2.38.68,2.34,2.35-.06,2.5-.06,5.01.02,7.52.06,1.74-.83,2.4-2.38,2.3-6.68-.43-13.57-.06-19.96-1.66-4.34-1.09-8.52-4.42-11.83-7.7-9.55-9.44-18.62-19.36-27.87-29.1-6.28-6.61-12.46-13.31-18.86-19.8-1.11-1.13-3.08-1.96-4.66-1.99-9.94-.17-19.88,0-29.82-.12-2.59-.03-3.47.64-3.45,3.37.12,18.15.02,36.29.1,54.44.01,2.61-.69,3.73-3.47,3.3-1.56-.24-3.21-.1-4.8.08-2.85.32-3.87-.67-3.86-3.68.11-24.86.06-49.73.06-74.59,0-23.86.03-47.72-.07-71.59-.01-2.68.8-3.39,3.44-3.38,22.68.09,45.36-.28,68.03.13,16.67.3,30,7.83,39.53,21.45,10.12,14.46,10.46,29.92,2.32,45.19-5.58,10.46-14.62,17.71-25.79,21.91-6.85,2.57-14.06,3.45-22.04,3.21Zm-53.39-45.98c0,10.12.12,20.24-.07,30.35-.06,3.08.87,3.91,3.89,3.89,17.15-.13,34.31-.04,51.46-.07,8.54-.02,16.43-1.96,23.77-6.72,15.08-9.78,20.34-28.81,11.11-43.41-8.27-13.08-21.04-18.14-36.02-18.22-16.95-.09-33.89.14-50.84.1-2.42,0-3.39.5-3.36,3.13.13,10.32.05,20.64.06,30.95Z"/>
      <path class="cls-1" d="m755.78,85.13c0-24.56.02-49.12-.03-73.68,0-2.13.82-2.83,2.84-2.83,23.28.05,46.57-.3,69.85.17,20.32.41,39.06,15.09,44.39,34.33,4.93,17.79-.77,32.63-14.05,44.83-6.29,5.78-13.85,9.5-22.13,11.34-4.33.96-8.92.75-13.39,1.12-.62.05-1.21.44-1.82.67.27.59.4,1.3.82,1.74,12.35,13.01,24.81,25.91,37.05,39.01,4.32,4.63,9.4,6.89,15.62,6.92,3.01.02,6.02.11,9.03.1,1.69,0,2.68.56,2.65,2.42-.04,2.51.19,5.04-.13,7.5-.12.89-1.52,2.35-2.29,2.32-6.19-.25-12.38-.68-18.55-1.27-6.03-.58-10.14-4.69-13.98-8.68-14.19-14.72-28.14-29.66-42.19-44.52-1.38-1.46-2.64-3.05-4.19-4.3-1-.8-2.42-1.52-3.67-1.53-10.34-.12-20.68-.01-31.02-.1-2.16-.02-2.75.79-2.74,2.83.05,18.14-.03,36.29.06,54.43.01,2.74-.46,4.39-3.65,3.7-.1-.02-.2-.01-.3-.01q-8.11.02-8.12-7.95c0-22.86,0-45.71,0-68.57h-.07Zm12.11-30.41s0,0,0,0c0,10.22.11,20.44-.07,30.66-.05,2.79.91,3.38,3.45,3.37,17.86-.08,35.73.15,53.59-.17,4.79-.08,9.8-1.03,14.24-2.78,4.45-1.75,8.67-4.57,12.37-7.66,11.91-9.96,14.73-27.01,6.37-39.71-7.1-10.78-17.3-17.31-30.44-17.61-19.06-.43-38.13-.21-57.19-.31-1.95-.01-2.34.98-2.34,2.64.03,10.52.02,21.04.02,31.56Z"/>
      <path class="cls-1" d="m1187.75,108.91c.29-1.29.61-2.03.6-2.78-.08-22.54-.18-45.07-.28-67.61-.04-8.82-.08-17.64-.11-26.46-.01-3.55.37-3.91,3.97-3.94q8.01-.07,8.01,7.96c0,46.52,0,93.04,0,139.56q0,6.17-6.2,6.2c-.9,0-1.81-.07-2.71,0-2.21.19-3.12-.83-3.1-2.98.1-10.12.42-20.25.04-30.35-.08-2.24-2.32-4.73-4.15-6.51-13.32-12.9-26.81-25.63-40.22-38.44-19.42-18.56-38.84-37.14-58.2-55.76-1.55-1.49-2.7-3.39-4.04-5.09-.47.28-.94.57-1.41.85,0,1.27,0,2.54,0,3.81-.04,38.28-.08,76.56-.12,114.84,0,5.51.03,11.02.08,16.53.02,2.22-.74,3.37-3.23,3.09-1.98-.22-4.01-.18-6.01-.05-2.22.15-3.11-.77-3.11-2.94.03-27.56.03-55.12.03-82.68,0-21.45.02-42.91-.07-64.36-.01-2.83.83-4.2,3.81-3.72.59.09,1.22.1,1.8,0,6.66-1.17,11.28,1.77,16,6.36,27.16,26.43,54.64,52.55,82,78.78,4.77,4.57,9.48,9.21,14.23,13.8.56.54,1.22.97,2.39,1.88Z"/>
      <path class="cls-1" d="m1213.17,85.01c0-24.25,0-48.5,0-72.75,0-3.9,0-3.87,4.03-3.87,15.75,0,31.51-.09,47.26-.02,18.94.09,36.22,5.14,51.01,17.45,14.62,12.17,24.16,27.41,27.04,46.25,1.74,11.38,1.65,22.89-1.77,34.13-7.16,23.55-22.49,39.83-44.71,49.81-8.07,3.63-16.72,5.35-25.58,5.46-17.64.21-35.29.29-52.93.39-4.24.02-4.35-.17-4.35-4.4,0-24.15,0-48.3,0-72.45Zm12.04.1h.04c0,20.34.04,40.68-.05,61.02-.01,2.58.68,3.55,3.39,3.52,9.53-.11,19.06-.08,28.59.06,9.33.14,18.7.15,27.71-2.44,15.31-4.4,27.18-13.73,36.09-26.83,14.66-21.57,14.01-53.41-2.38-74.05-12.63-15.9-28.73-25.15-49.28-25.67-13.74-.35-27.49-.18-41.23-.32-2.29-.02-2.91.93-2.91,3.07.05,20.54.03,41.08.03,61.62Z"/>
      <path class="cls-1" d="m976.72,8.46c7.64-2.46,10.16,2.31,12.71,8.24,6.5,15.09,13.54,29.95,20.28,44.93,5.03,11.17,9.94,22.39,14.88,33.6,1.35,3.07,1.69,3.17,3.92.59,1.57-1.81,3.13-3.65,4.57-5.56,1.15-1.51,2.17-1.76,3.69-.43,1.8,1.58,3.8,2.93,5.7,4.39,1.29.99,1.82,1.98.41,3.43-3.28,3.37-6.35,6.95-9.7,10.24-1.57,1.54-1.7,2.79-.81,4.73,6.72,14.78,13.34,29.61,20,44.41.24.54.68,1.01.86,1.57.26.8.76,2.07.43,2.39-.55.53-1.67.58-2.56.65-1.8.14-3.6.18-5.4.21-2.76.04-4.78-.28-6.15-3.59-4.48-10.86-9.55-21.48-14.38-32.2-1.15-2.54-2.28-5.09-3.34-7.67-.68-1.66-1.67-2.35-3.5-1.83-10.56,2.99-20.93,2-31.09-1.77-7.82-2.91-15.5-6.25-23.39-8.95-4.1-1.4-8.49-2.26-12.81-2.6-7.96-.64-13.42,3.6-16.61,10.47-7,15.08-13.77,30.28-20.41,45.52-.94,2.17-2.23,2.58-4.06,2.65-2.4.09-4.8.1-7.19.08-2.33-.02-2.86-1.26-1.76-3.68,5.88-12.86,11.77-25.71,17.58-38.6,12.34-27.34,24.64-54.69,36.95-82.04,4.13-9.17,8.3-18.32,12.29-27.55.66-1.53,1.27-1.88,2.85-1.68,1.97.25,4.01.06,6.01.06Zm38.9,96.16c-12.78-28.35-25.43-56.4-38.08-84.46-.29,0-.58-.02-.86-.03-10.61,23.55-21.23,47.09-31.92,70.83.84.19,1.33.44,1.79.39,12.01-1.32,22.68,3.2,33.46,7.44,6.48,2.55,13.02,4.97,19.68,7,5.25,1.6,10.63,1.41,15.93-1.17Z"/>
      <path class="cls-1" d="m112.61,8.23c0,3.56.13,6.86-.1,10.13-.05.67-1.43,1.79-2.2,1.79-26.3.08-52.61.07-78.91-.03-2.77-.01-3.7.91-3.68,3.66.09,13.03.06,26.06,0,39.09,0,1.85.36,3.13,2.45,3.38,8.61,1.04,15.98,5.43,23.79,8.68,5.4,2.24,10.89,4.57,16.57,5.79,7.85,1.7,14.26-1.93,19.5-7.56,2.17-2.33,4-5,5.86-7.6,1.25-1.75,2.5-2.07,4.26-.73,1.83,1.39,3.88,2.5,5.6,4,.68.59,1.32,2.32.97,2.81-5.48,7.67-11.15,15.15-20.35,18.89-8.6,3.49-17.25,3.28-25.73.06-7.91-3-15.59-6.62-23.4-9.89-2.2-.92-4.48-1.68-6.78-2.28-1.7-.45-2.77-.03-2.75,2.24.1,13.93.06,27.86.05,41.79,0,8.12-.02,16.24-.07,24.36-.01,2.04.85,2.82,2.91,2.81,26.4-.06,52.79-.03,79.19-.12,2.17,0,2.88.63,2.8,2.7-.09,2.5.03,5.01.04,7.52,0,1.58-.6,2.23-2.37,2.22-18.46-.07-36.91-.03-55.37-.04-12.14-.01-24.28-.1-36.42-.07-2.48,0-2.96-1.14-2.95-3.36.06-23.96.04-47.92.03-71.88,0-.84-.12-1.68-.18-2.53-.28-.11-.57-.21-.85-.32-.78,1.36-1.68,2.66-2.31,4.09-.9,2.06-2.02,2.79-4.2,1.58-2.17-1.21-4.49-2.16-6.75-3.21-1.36-.63-1.65-1.33-.77-2.78,3.67-5.98,7.11-12.07,13.63-15.62.87-.47,1.37-2.32,1.38-3.54.09-17.44.13-34.89,0-52.33-.02-3.02.74-3.9,3.84-3.89,30.42.1,60.84.04,91.26.03.49,0,.97.08,2,.17Z"/>
      <path class="cls-1" d="m1400.84,149.81c11.74,0,23.48.19,35.22-.04,16.74-.33,29.98-11.53,32.66-26.74,2.84-16.1-7.83-31.89-21.85-35.9-3.98-1.14-8.2-1.83-12.33-1.95-14.34-.41-28.74.18-43.03-.88-12.33-.91-23.83-4.95-30.5-16.69-4.41-7.77-5.13-16.16-3.5-24.95,1.64-8.9,5.6-16.31,12.32-22.34,6.89-6.18,14.83-10.47,24.07-10.89,16.32-.74,32.67-.81,49.01-1.05,9.84-.14,19.67-.03,29.51-.14,1.96-.02,2.79.69,2.78,2.59-.02,2.31-.08,4.62.03,6.92.1,2.22-.79,2.95-3.02,2.94-15.66-.09-31.32-.07-46.98-.08-7.53,0-15.07-.18-22.59.08-8.59.29-16.88,1.74-23.73,7.71-8.87,7.75-11.83,18.5-8.93,29.49,1.61,6.09,5.96,9.33,11.38,11.69,6.77,2.94,13.93,3.46,21.15,3.57,12.84.2,25.69.22,38.53.58,8.36.23,15.73,3.65,22.34,8.48,9.18,6.71,15.1,15.82,17.08,26.98,2.92,16.49-1.79,30.58-14.57,41.8-8.99,7.89-19.74,10.71-31.31,10.85-16.36.2-32.72.04-49.08.02-6.82,0-13.64-.14-20.46-.04-1.79.03-2.4-.73-2.44-2.22-.07-2.6-.02-5.21-.03-7.82,0-2.14,1.31-2.25,3.03-2.24,11.74.06,23.49.03,35.24.03,0,.08,0,.17,0,.25Z"/>
      <path class="cls-1" d="m241.18,54.46c0-14.24.04-28.47-.04-42.71-.01-2.65.57-3.98,3.61-3.44,1.84.33,3.8.09,5.69-.02,2.07-.12,2.92.78,2.91,2.82-.07,28.16.29,56.34-.3,84.49-.44,21.16-9.46,38.62-25.69,52.42-7.75,6.59-16.54,11.02-26.42,12.62-18.67,3.03-35.71-.69-50.32-13.53-11.14-9.79-19.08-21.47-22.43-35.95-1.23-5.32-2.18-10.83-2.23-16.26-.24-27.77-.13-55.54-.2-83.31,0-2.4.65-3.54,3.32-3.2,2.07.26,4.23.26,6.29-.04,2.25-.33,2.57.71,2.56,2.51-.05,6.21-.04,12.43-.04,18.64,0,20.85-.1,41.7.02,62.55.08,14.51,3.98,27.82,13.68,38.96,5.97,6.86,12.86,12.66,21.63,15.65,6.96,2.37,14.09,3.41,21.53,2.47,5.3-.67,10.43-1.75,15.15-4.16,11.54-5.89,19.92-14.91,25.52-26.52,3.79-7.85,5.5-16.22,5.58-24.89.11-13.03.03-26.06.03-39.08h.14Z"/>
    </g>
  </g>
</svg>